<svg width="296" height="209" viewBox="0 0 296 209" fill="none" xmlns="http://www.w3.org/2000/svg">
  <path d="M0.250977 107.677C0.250977 104.334 2.96117 101.624 6.30436 101.624H94.6838C98.027 101.624 100.737 104.334 100.737 107.677V167C100.737 170.343 98.027 173.054 94.6838 173.054H6.30436C2.96117 173.054 0.250977 170.343 0.250977 167V107.677Z" fill="#CBDDFF"/>
  <mask id="mask0_84_1779" style="mask-type:alpha" maskUnits="userSpaceOnUse" x="0" y="101" width="101" height="73">
    <path d="M0.250977 107.676C0.250977 104.333 2.96117 101.622 6.30436 101.622H94.6838C98.027 101.622 100.737 104.333 100.737 107.676V166.999C100.737 170.342 98.027 173.052 94.6838 173.052H6.30436C2.96117 173.052 0.250977 170.342 0.250977 166.999V107.676Z" fill="#AADAFF"/>
  </mask>
  <g mask="url(#mask0_84_1779)">
    <path d="M115.264 174.262H-11.2515L20.0867 144.471C21.1207 143.489 22.7025 143.366 23.8752 144.179L42.2336 156.897C43.5497 157.808 45.3493 157.53 46.329 156.264L74.3319 120.066C75.591 118.439 78.0752 118.526 79.2173 120.237L115.264 174.262Z" fill="#00CC6F"/>
  </g>
  <path d="M41.4141 124.023C41.4141 129.038 37.3488 133.103 32.334 133.103C27.3192 133.103 23.2539 129.038 23.2539 124.023C23.2539 119.009 27.3192 114.943 32.334 114.943C37.3488 114.943 41.4141 119.009 41.4141 124.023Z" fill="white"/>
  <path d="M34.1494 31.4086C34.1494 28.0654 36.8596 25.3552 40.2028 25.3552H94.6833C98.0265 25.3552 100.737 28.0654 100.737 31.4086V84.6784C100.737 88.0216 98.0265 90.7318 94.6833 90.7318H40.2028C36.8596 90.7318 34.1494 88.0216 34.1494 84.6784V31.4086Z" fill="#FFCC00"/>
  <path d="M82.1425 57.4093C83.3451 58.1036 83.3451 59.8394 82.1425 60.5337L61.2127 72.6176C60.0101 73.3119 58.5068 72.444 58.5068 71.0553L58.5068 46.8877C58.5068 45.499 60.0101 44.6311 61.2127 45.3255L82.1425 57.4093Z" fill="white"/>
  <path fill-rule="evenodd" clip-rule="evenodd" d="M116.959 149.647V153.976C116.959 156.65 119.127 158.818 121.801 158.818H125.999V160.825H121.801C118.018 160.825 114.952 157.759 114.952 153.976V149.647H116.959ZM138.125 158.818V160.825H146.519V158.818H138.125ZM158.645 158.818V160.825H167.04V158.818H158.645ZM179.166 158.818V160.825H183.364C187.146 160.825 190.213 157.759 190.213 153.976V149.647H188.206V153.976C188.206 156.65 186.038 158.818 183.364 158.818H179.166ZM188.206 137.143H190.213V128.487H188.206V137.143ZM188.206 115.983H190.213V107.326H188.206V115.983ZM188.206 94.8222H190.213V86.1656H188.206V94.8222ZM188.206 73.6616H190.213V69.3333C190.213 65.5503 187.146 62.4836 183.364 62.4836H179.166V64.4906H183.364C186.038 64.4906 188.206 66.6587 188.206 69.3333V73.6616ZM167.04 64.4906V62.4836H158.645V64.4906H167.04ZM146.519 64.4906V62.4836H138.125V64.4906H146.519ZM125.999 64.4906H121.801C119.127 64.4906 116.959 66.6587 116.959 69.3333V73.6616H114.952V69.3333C114.952 65.5503 118.018 62.4836 121.801 62.4836H125.999V64.4906ZM116.959 94.8222V86.1656H114.952V94.8222H116.959ZM116.959 107.326H114.952V115.983H116.959V107.326ZM116.959 128.487H114.952V137.143H116.959V128.487Z" fill="#0F1048"/>
  <path fill-rule="evenodd" clip-rule="evenodd" d="M116.96 149.647H118.967V153.976C118.967 155.542 120.237 156.811 121.803 156.811H126.001V158.818H121.803C119.129 158.818 116.96 156.65 116.96 153.976V149.647ZM116.96 137.143H118.967V128.487H116.96V137.143ZM116.96 115.983H118.967V107.326H116.96V115.983ZM116.96 94.8221H118.967V86.1655H116.96V94.8221ZM116.96 73.6616H118.967V69.3332C118.967 67.7671 120.237 66.4975 121.803 66.4975H126.001V64.4905H121.803C119.129 64.4905 116.96 66.6587 116.96 69.3332V73.6616ZM138.126 64.4905V66.4975H146.521V64.4905H138.126ZM158.647 64.4905V66.4975H167.042V64.4905H158.647ZM179.168 64.4905V66.4975H183.365C184.931 66.4975 186.201 67.7671 186.201 69.3333V73.6616H188.208V69.3333C188.208 66.6587 186.04 64.4905 183.365 64.4905H179.168ZM188.208 86.1655H186.201V94.8221H188.208V86.1655ZM188.208 107.326H186.201V115.983H188.208V107.326ZM188.208 128.487H186.201V137.143H188.208V128.487ZM188.208 149.647H186.201V153.976C186.201 155.542 184.931 156.811 183.365 156.811H179.168V158.818H183.365C186.04 158.818 188.208 156.65 188.208 153.976V149.647ZM167.042 158.818V156.811H158.647V158.818H167.042ZM146.521 158.818V156.811H138.126V158.818H146.521Z" fill="white"/>
  <path fill-rule="evenodd" clip-rule="evenodd" d="M201.298 35.474L208.583 19.2862L210.459 20.1308L203.175 36.3185L201.298 35.474Z" fill="#0F1048"/>
  <path fill-rule="evenodd" clip-rule="evenodd" d="M208.968 39.0727L225.561 28.5507L226.663 30.2889L210.071 40.8109L208.968 39.0727Z" fill="#0F1048"/>
  <path fill-rule="evenodd" clip-rule="evenodd" d="M203.611 37.0152L210.895 20.8275L212.772 21.6721L205.487 37.8598L203.611 37.0152Z" fill="white"/>
  <path fill-rule="evenodd" clip-rule="evenodd" d="M211.281 40.614L227.873 30.092L228.975 31.8301L212.383 42.3521L211.281 40.614Z" fill="white"/>
  <path fill-rule="evenodd" clip-rule="evenodd" d="M207.173 85.6025C208.009 81.9388 211.657 79.6465 215.321 80.4825L233.727 84.6827C243.659 86.9492 250.072 96.592 248.332 106.625L245.861 120.877C245.219 124.58 241.696 127.061 237.994 126.419C234.291 125.777 231.81 122.255 232.452 118.552L234.924 104.3C235.428 101.393 233.571 98.6055 230.699 97.9502L212.293 93.75C208.629 92.914 206.337 89.2662 207.173 85.6025Z" fill="#E68771"/>
  <path d="M124.523 52.438C123.859 47.7722 127.103 43.4515 131.769 42.7875L175.323 36.5895L178.756 60.719C179.42 65.3848 183.741 68.6289 188.407 67.9649L212.045 64.601L221.074 128.048C221.738 132.714 218.494 137.035 213.828 137.699L146.636 147.261C141.97 147.925 137.65 144.68 136.986 140.015L124.523 52.438Z" fill="#CBDDFF"/>
  <path d="M129.62 51.7122C128.956 47.0464 132.2 42.7258 136.866 42.0618L180.615 35.836L184.145 60.6436C184.809 65.3092 189.129 68.5532 193.795 67.8897L218.513 64.374L227.445 127.141C228.109 131.807 224.865 136.128 220.199 136.791L151.733 146.533C147.067 147.196 142.747 143.952 142.083 139.287L129.62 51.7122Z" fill="#6161FF"/>
  <path d="M193.817 67.754L218.494 64.2422L199.575 50.0364L180.655 35.8306L184.167 60.508C184.831 65.1738 189.151 68.418 193.817 67.754Z" fill="#6161FF"/>
  <path fill-rule="evenodd" clip-rule="evenodd" d="M181.738 35.6765L185.249 60.3539C185.828 64.4216 189.595 67.2499 193.663 66.671L218.34 63.1592L218.648 65.3252L193.971 68.8369C188.707 69.586 183.833 65.926 183.084 60.6621L179.572 35.9847L181.738 35.6765Z" fill="#0F1048"/>
  <path fill-rule="evenodd" clip-rule="evenodd" d="M165.995 111.174C165.817 111.393 165.641 111.603 165.47 111.802L160.564 107.692C160.735 107.484 160.907 107.277 161.081 107.073C163.278 104.36 166.256 99.5861 168.307 93.6439C170.132 88.3586 171.178 82.2833 170.394 75.9887C169.979 74.4252 169.727 72.9657 169.61 71.693L175.904 70.6371C176.242 72.0101 176.499 73.3748 176.684 74.7269C177.425 77.34 178.763 80.3539 180.91 83.0574C184.079 87.0474 189.058 90.4392 196.837 90.8756L196.791 97.2678C193.531 97.4038 187.872 98.298 181.897 100.573C176.135 102.766 170.297 106.161 165.995 111.174ZM173.835 97.1766C175.769 96.172 177.716 95.3165 179.62 94.5916C180.803 94.1412 181.977 93.7384 183.129 93.3796C180.453 91.7902 178.235 89.8247 176.425 87.6811C175.945 90.5264 175.221 93.2278 174.357 95.7321C174.188 96.2203 174.014 96.7019 173.835 97.1766Z" fill="white"/>
  <path fill-rule="evenodd" clip-rule="evenodd" d="M235.705 63.0262C238.629 60.6668 242.913 61.1252 245.273 64.0501L264.078 87.363L256.987 118.44C256.151 122.104 252.503 124.396 248.839 123.56C245.176 122.724 242.883 119.076 243.719 115.413L249.343 90.7702L234.681 72.5943C232.321 69.6694 232.78 65.3856 235.705 63.0262Z" fill="#E68771"/>
  <path fill-rule="evenodd" clip-rule="evenodd" d="M265.27 55.1802C268.992 54.6624 272.429 57.26 272.947 60.982L276.558 86.9462L269.924 116.022C269.087 119.686 265.44 121.978 261.776 121.142C258.112 120.306 255.82 116.658 256.656 112.994L262.736 86.3505L259.468 62.857C258.95 59.135 261.548 55.6979 265.27 55.1802Z" fill="#E68771"/>
  <path fill-rule="evenodd" clip-rule="evenodd" d="M286.849 69.1454C290.513 69.9814 292.805 73.6292 291.969 77.2929L282.657 118.102C281.821 121.765 278.173 124.058 274.509 123.222C270.845 122.386 268.553 118.738 269.389 115.074L278.702 74.2654C279.538 70.6016 283.185 68.3094 286.849 69.1454Z" fill="#E68771"/>
  <path fill-rule="evenodd" clip-rule="evenodd" d="M207.373 107.555C212.25 106.096 217.388 108.867 218.847 113.745L223.39 128.928C225.271 135.218 228.199 141.146 232.048 146.464L236.434 152.523C239.42 156.647 238.497 162.411 234.373 165.396C230.248 168.382 224.485 167.459 221.5 163.335L217.113 157.276C212.05 150.281 208.201 142.485 205.726 134.213L201.183 119.029C199.724 114.152 202.495 109.014 207.373 107.555Z" fill="#E68771"/>
  <mask id="mask1_84_1779" style="mask-type:alpha" maskUnits="userSpaceOnUse" x="200" y="55" width="93" height="117">
    <path fill-rule="evenodd" clip-rule="evenodd" d="M265.265 55.1826C268.987 54.6648 272.425 57.2624 272.942 60.9845L276.271 84.9136L278.7 74.2679C279.536 70.6042 283.184 68.3119 286.848 69.148C290.512 69.984 292.804 73.6318 291.968 77.2955L282.655 118.104C282.484 118.855 282.195 119.548 281.812 120.168L275.406 148.239C273.21 157.862 265.891 165.491 256.367 168.084L249.398 169.982C237.847 173.127 224.083 170.328 218.102 159.957C217.313 158.59 216.578 157.137 215.926 155.594C211.445 149.041 208.002 141.83 205.724 134.216L201.182 119.033C199.722 114.155 202.493 109.018 207.371 107.559C212.249 106.099 217.386 108.87 218.845 113.748L223.388 128.931C223.759 130.17 224.17 131.395 224.621 132.604C224.896 132.361 225.179 132.121 225.461 131.881C227.078 130.505 228.694 129.13 229.092 127.385L231.608 116.365L245.081 109.434L249.339 90.771L234.678 72.5951C232.318 69.6702 232.777 65.3864 235.701 63.027C238.626 60.6676 242.91 61.126 245.269 64.0509L262.622 85.5617L259.464 62.8595C258.946 59.1374 261.543 55.7003 265.265 55.1826Z" fill="#ED7A55"/>
  </mask>
  <g mask="url(#mask1_84_1779)">
    <path fill-rule="evenodd" clip-rule="evenodd" d="M249.293 53.9847C253.98 54.5472 257.323 58.8028 256.761 63.4898C256.198 68.1769 251.943 71.5204 247.256 70.9579C242.569 70.3954 239.225 66.1398 239.788 61.4527C240.35 56.7657 244.606 53.4221 249.293 53.9847ZM257.704 63.603C258.329 58.3952 254.614 53.6667 249.406 53.0417C244.198 52.4167 239.47 56.1317 238.845 61.3396C238.22 66.5474 241.935 71.2758 247.142 71.9009C252.35 72.5259 257.079 68.8108 257.704 63.603Z" fill="#CC5336"/>
    <path fill-rule="evenodd" clip-rule="evenodd" d="M275.546 50.4386C280.233 51.0011 283.576 55.2567 283.014 59.9438C282.451 64.6308 278.196 67.9744 273.509 67.4118C268.821 66.8493 265.478 62.5937 266.04 57.9067C266.603 53.2196 270.859 49.876 275.546 50.4386ZM283.957 60.0569C284.582 54.8491 280.867 50.1207 275.659 49.4956C270.451 48.8706 265.723 52.5857 265.097 57.7935C264.472 63.0013 268.188 67.7298 273.395 68.3548C278.603 68.9798 283.332 65.2648 283.957 60.0569Z" fill="#CC5336"/>
    <path fill-rule="evenodd" clip-rule="evenodd" d="M295.669 70.0717C300.096 70.603 303.253 74.6222 302.722 79.0488C302.191 83.4755 298.172 86.6333 293.745 86.102C289.318 85.5707 286.161 81.5515 286.692 77.1249C287.223 72.6982 291.242 69.5404 295.669 70.0717ZM303.665 79.162C304.259 74.2146 300.73 69.7225 295.782 69.1287C290.835 68.535 286.343 72.0643 285.749 77.0117C285.155 81.9591 288.684 86.4512 293.632 87.045C298.579 87.6387 303.071 84.1094 303.665 79.162Z" fill="#CC5336"/>
    <path fill-rule="evenodd" clip-rule="evenodd" d="M202.332 110.522C207.019 111.085 210.363 115.341 209.8 120.028C209.238 124.715 204.982 128.058 200.295 127.496C195.608 126.933 192.265 122.678 192.827 117.991C193.39 113.303 197.645 109.96 202.332 110.522ZM210.743 120.141C211.368 114.933 207.653 110.205 202.445 109.579C197.238 108.954 192.509 112.67 191.884 117.877C191.259 123.085 194.974 127.814 200.182 128.439C205.39 129.064 210.118 125.349 210.743 120.141Z" fill="#CC5336"/>
  </g>
  <path d="M282.393 117.631L275.409 148.237C273.213 157.86 265.893 165.489 256.37 168.082L249.401 169.98C237.85 173.125 224.085 170.325 218.104 159.955C217.194 158.376 216.355 156.684 215.633 154.87L220.637 120.188L223.961 130.161C225.385 133.237 229.921 132.66 230.53 129.325L233.933 110.692L245.508 109.214L282.393 117.631Z" fill="#E68771"/>
  <path fill-rule="evenodd" clip-rule="evenodd" d="M234.429 85.061C245.037 87.4816 251.674 98.0434 249.254 108.651L248.392 112.428L247.466 112.217L248.328 108.44C250.632 98.3435 244.314 88.2909 234.218 85.9869L234.429 85.061Z" fill="#CC5336"/>
  <path fill-rule="evenodd" clip-rule="evenodd" d="M262.527 85.0199L263.943 87.2727C264.901 88.797 265.214 90.6394 264.813 92.3945L260.352 111.947L259.426 111.735L263.888 92.1833C264.232 90.6737 263.963 89.0891 263.139 87.778L261.723 85.5252L262.527 85.0199Z" fill="#CC5336"/>
  <path fill-rule="evenodd" clip-rule="evenodd" d="M276.793 90.8067L276.051 84.7878L276.993 84.6716L277.736 90.6905C277.832 91.4718 277.792 92.2639 277.616 93.0315L273.17 112.515L272.244 112.304L276.691 92.8202C276.841 92.16 276.876 91.4787 276.793 90.8067Z" fill="#CC5336"/>
</svg>
