<svg id="visual" viewBox="0 0 100 100" width="100" height="100" xmlns="http://www.w3.org/2000/svg" xmlns:xlink="http://www.w3.org/1999/xlink" version="1.1"><path d="M0 3L8.3 3C16.7 3 33.3 3 50 5C66.7 7 83.3 11 91.7 13L100 15L100 0L91.7 0C83.3 0 66.7 0 50 0C33.3 0 16.7 0 8.3 0L0 0Z" fill="#718fe9"></path><path d="M0 11L8.3 10.2C16.7 9.3 33.3 7.7 50 10.5C66.7 13.3 83.3 20.7 91.7 24.3L100 28L100 13L91.7 11C83.3 9 66.7 5 50 3C33.3 1 16.7 1 8.3 1L0 1Z" fill="#6586e7"></path><path d="M0 13L8.3 12.2C16.7 11.3 33.3 9.7 50 12.8C66.7 16 83.3 24 91.7 28L100 32L100 26L91.7 22.3C83.3 18.7 66.7 11.3 50 8.5C33.3 5.7 16.7 7.3 8.3 8.2L0 9Z" fill="#5a7de4"></path><path d="M0 23L8.3 21.8C16.7 20.7 33.3 18.3 50 20.3C66.7 22.3 83.3 28.7 91.7 31.8L100 35L100 30L91.7 26C83.3 22 66.7 14 50 10.8C33.3 7.7 16.7 9.3 8.3 10.2L0 11Z" fill="#4d74e1"></path><path d="M0 47L8.3 42.7C16.7 38.3 33.3 29.7 50 29.8C66.7 30 83.3 39 91.7 43.5L100 48L100 33L91.7 29.8C83.3 26.7 66.7 20.3 50 18.3C33.3 16.3 16.7 18.7 8.3 19.8L0 21Z" fill="#3f6bdf"></path><path d="M0 50L8.3 46.7C16.7 43.3 33.3 36.7 50 37.2C66.7 37.7 83.3 45.3 91.7 49.2L100 53L100 46L91.7 41.5C83.3 37 66.7 28 50 27.8C33.3 27.7 16.7 36.3 8.3 40.7L0 45Z" fill="#2f62dc"></path><path d="M0 54L8.3 51.7C16.7 49.3 33.3 44.7 50 46.3C66.7 48 83.3 56 91.7 60L100 64L100 51L91.7 47.2C83.3 43.3 66.7 35.7 50 35.2C33.3 34.7 16.7 41.3 8.3 44.7L0 48Z" fill="#235cd5"></path><path d="M0 59L8.3 57C16.7 55 33.3 51 50 52.8C66.7 54.7 83.3 62.3 91.7 66.2L100 70L100 62L91.7 58C83.3 54 66.7 46 50 44.3C33.3 42.7 16.7 47.3 8.3 49.7L0 52Z" fill="#2157ca"></path><path d="M0 65L8.3 63C16.7 61 33.3 57 50 58.2C66.7 59.3 83.3 65.7 91.7 68.8L100 72L100 68L91.7 64.2C83.3 60.3 66.7 52.7 50 50.8C33.3 49 16.7 53 8.3 55L0 57Z" fill="#1e53bf"></path><path d="M0 81L8.3 81.5C16.7 82 33.3 83 50 85C66.7 87 83.3 90 91.7 91.5L100 93L100 70L91.7 66.8C83.3 63.7 66.7 57.3 50 56.2C33.3 55 16.7 59 8.3 61L0 63Z" fill="#1b4eb5"></path><path d="M0 85L8.3 85.3C16.7 85.7 33.3 86.3 50 88C66.7 89.7 83.3 92.3 91.7 93.7L100 95L100 91L91.7 89.5C83.3 88 66.7 85 50 83C33.3 81 16.7 80 8.3 79.5L0 79Z" fill="#1949aa"></path><path d="M0 101L8.3 101C16.7 101 33.3 101 50 101C66.7 101 83.3 101 91.7 101L100 101L100 93L91.7 91.7C83.3 90.3 66.7 87.7 50 86C33.3 84.3 16.7 83.7 8.3 83.3L0 83Z" fill="#1745a0"></path></svg>