<svg id="visual" viewBox="0 0 100 100" width="100" height="100" xmlns="http://www.w3.org/2000/svg" xmlns:xlink="http://www.w3.org/1999/xlink" version="1.1"><path d="M0 5L8.3 7.7C16.7 10.3 33.3 15.7 50 16.7C66.7 17.7 83.3 14.3 91.7 12.7L100 11L100 0L91.7 0C83.3 0 66.7 0 50 0C33.3 0 16.7 0 8.3 0L0 0Z" fill="#718fe9"></path><path d="M0 13L8.3 15.2C16.7 17.3 33.3 21.7 50 21.7C66.7 21.7 83.3 17.3 91.7 15.2L100 13L100 9L91.7 10.7C83.3 12.3 66.7 15.7 50 14.7C33.3 13.7 16.7 8.3 8.3 5.7L0 3Z" fill="#6586e7"></path><path d="M0 27L8.3 27C16.7 27 33.3 27 50 27.5C66.7 28 83.3 29 91.7 29.5L100 30L100 11L91.7 13.2C83.3 15.3 66.7 19.7 50 19.7C33.3 19.7 16.7 15.3 8.3 13.2L0 11Z" fill="#5a7de4"></path><path d="M0 45L8.3 47.2C16.7 49.3 33.3 53.7 50 54.7C66.7 55.7 83.3 53.3 91.7 52.2L100 51L100 28L91.7 27.5C83.3 27 66.7 26 50 25.5C33.3 25 16.7 25 8.3 25L0 25Z" fill="#4d74e1"></path><path d="M0 57L8.3 59.5C16.7 62 33.3 67 50 66.5C66.7 66 83.3 60 91.7 57L100 54L100 49L91.7 50.2C83.3 51.3 66.7 53.7 50 52.7C33.3 51.7 16.7 47.3 8.3 45.2L0 43Z" fill="#3f6bdf"></path><path d="M0 66L8.3 67.5C16.7 69 33.3 72 50 71C66.7 70 83.3 65 91.7 62.5L100 60L100 52L91.7 55C83.3 58 66.7 64 50 64.5C33.3 65 16.7 60 8.3 57.5L0 55Z" fill="#2f62dc"></path><path d="M0 70L8.3 70.8C16.7 71.7 33.3 73.3 50 71.8C66.7 70.3 83.3 65.7 91.7 63.3L100 61L100 58L91.7 60.5C83.3 63 66.7 68 50 69C33.3 70 16.7 67 8.3 65.5L0 64Z" fill="#235cd5"></path><path d="M0 72L8.3 73.7C16.7 75.3 33.3 78.7 50 78C66.7 77.3 83.3 72.7 91.7 70.3L100 68L100 59L91.7 61.3C83.3 63.7 66.7 68.3 50 69.8C33.3 71.3 16.7 69.7 8.3 68.8L0 68Z" fill="#2157ca"></path><path d="M0 83L8.3 83.2C16.7 83.3 33.3 83.7 50 82.5C66.7 81.3 83.3 78.7 91.7 77.3L100 76L100 66L91.7 68.3C83.3 70.7 66.7 75.3 50 76C33.3 76.7 16.7 73.3 8.3 71.7L0 70Z" fill="#1e53bf"></path><path d="M0 98L8.3 96.2C16.7 94.3 33.3 90.7 50 89.3C66.7 88 83.3 89 91.7 89.5L100 90L100 74L91.7 75.3C83.3 76.7 66.7 79.3 50 80.5C33.3 81.7 16.7 81.3 8.3 81.2L0 81Z" fill="#1b4eb5"></path><path d="M0 99L8.3 97.8C16.7 96.7 33.3 94.3 50 93.5C66.7 92.7 83.3 93.3 91.7 93.7L100 94L100 88L91.7 87.5C83.3 87 66.7 86 50 87.3C33.3 88.7 16.7 92.3 8.3 94.2L0 96Z" fill="#1949aa"></path><path d="M0 101L8.3 101C16.7 101 33.3 101 50 101C66.7 101 83.3 101 91.7 101L100 101L100 92L91.7 91.7C83.3 91.3 66.7 90.7 50 91.5C33.3 92.3 16.7 94.7 8.3 95.8L0 97Z" fill="#1745a0"></path></svg>