<svg id="visual" viewBox="0 0 100 100" width="100" height="100" xmlns="http://www.w3.org/2000/svg" xmlns:xlink="http://www.w3.org/1999/xlink" version="1.1"><path d="M0 20L8.3 19C16.7 18 33.3 16 50 15.2C66.7 14.3 83.3 14.7 91.7 14.8L100 15L100 0L91.7 0C83.3 0 66.7 0 50 0C33.3 0 16.7 0 8.3 0L0 0Z" fill="#718fe9"></path><path d="M0 24L8.3 22.7C16.7 21.3 33.3 18.7 50 17.2C66.7 15.7 83.3 15.3 91.7 15.2L100 15L100 13L91.7 12.8C83.3 12.7 66.7 12.3 50 13.2C33.3 14 16.7 16 8.3 17L0 18Z" fill="#6586e7"></path><path d="M0 39L8.3 36.5C16.7 34 33.3 29 50 27.2C66.7 25.3 83.3 26.7 91.7 27.3L100 28L100 13L91.7 13.2C83.3 13.3 66.7 13.7 50 15.2C33.3 16.7 16.7 19.3 8.3 20.7L0 22Z" fill="#5a7de4"></path><path d="M0 45L8.3 42.5C16.7 40 33.3 35 50 32.8C66.7 30.7 83.3 31.3 91.7 31.7L100 32L100 26L91.7 25.3C83.3 24.7 66.7 23.3 50 25.2C33.3 27 16.7 32 8.3 34.5L0 37Z" fill="#4d74e1"></path><path d="M0 49L8.3 47C16.7 45 33.3 41 50 38.3C66.7 35.7 83.3 34.3 91.7 33.7L100 33L100 30L91.7 29.7C83.3 29.3 66.7 28.7 50 30.8C33.3 33 16.7 38 8.3 40.5L0 43Z" fill="#3f6bdf"></path><path d="M0 64L8.3 60.7C16.7 57.3 33.3 50.7 50 47.3C66.7 44 83.3 44 91.7 44L100 44L100 31L91.7 31.7C83.3 32.3 66.7 33.7 50 36.3C33.3 39 16.7 43 8.3 45L0 47Z" fill="#2f62dc"></path><path d="M0 65L8.3 62.5C16.7 60 33.3 55 50 51.7C66.7 48.3 83.3 46.7 91.7 45.8L100 45L100 42L91.7 42C83.3 42 66.7 42 50 45.3C33.3 48.7 16.7 55.3 8.3 58.7L0 62Z" fill="#235cd5"></path><path d="M0 68L8.3 65.3C16.7 62.7 33.3 57.3 50 54.7C66.7 52 83.3 52 91.7 52L100 52L100 43L91.7 43.8C83.3 44.7 66.7 46.3 50 49.7C33.3 53 16.7 58 8.3 60.5L0 63Z" fill="#2157ca"></path><path d="M0 76L8.3 77.7C16.7 79.3 33.3 82.7 50 82.2C66.7 81.7 83.3 77.3 91.7 75.2L100 73L100 50L91.7 50C83.3 50 66.7 50 50 52.7C33.3 55.3 16.7 60.7 8.3 63.3L0 66Z" fill="#1e53bf"></path><path d="M0 77L8.3 79.2C16.7 81.3 33.3 85.7 50 85.3C66.7 85 83.3 80 91.7 77.5L100 75L100 71L91.7 73.2C83.3 75.3 66.7 79.7 50 80.2C33.3 80.7 16.7 77.3 8.3 75.7L0 74Z" fill="#1b4eb5"></path><path d="M0 81L8.3 83C16.7 85 33.3 89 50 89.7C66.7 90.3 83.3 87.7 91.7 86.3L100 85L100 73L91.7 75.5C83.3 78 66.7 83 50 83.3C33.3 83.7 16.7 79.3 8.3 77.2L0 75Z" fill="#1949aa"></path><path d="M0 101L8.3 101C16.7 101 33.3 101 50 101C66.7 101 83.3 101 91.7 101L100 101L100 83L91.7 84.3C83.3 85.7 66.7 88.3 50 87.7C33.3 87 16.7 83 8.3 81L0 79Z" fill="#1745a0"></path></svg>